<svg width="95" height="24" viewBox="0 0 95 24" fill="none" xmlns="http://www.w3.org/2000/svg">
<g clip-path="url(#clip0_2002_3024)">
<path d="M0.806152 17.3022L4.16942 14.6998C5.9563 17.0554 7.85477 18.1412 9.96792 18.1412C12.0698 18.1412 13.9146 17.0683 15.6209 14.7312L19.0322 17.2708C16.5702 20.6409 13.5106 22.4215 9.96792 22.4215C6.43656 22.4215 3.34732 20.6523 0.806152 17.3022Z" fill="url(#paint0_linear_2002_3024)"/>
<path d="M9.95719 5.99141L3.97079 11.202L1.20361 7.9604L9.96991 0.329956L18.6669 7.96606L15.8871 11.1963L9.95719 5.99141Z" fill="url(#paint1_linear_2002_3024)"/>
<path fill-rule="evenodd" clip-rule="evenodd" d="M43.2998 5.55825C43.2998 6.68541 44.1135 7.50721 45.2294 7.50721V7.50867C46.3086 7.50867 47.142 6.68541 47.142 5.55825C47.142 4.46819 46.3086 3.64636 45.2294 3.64636C44.1516 3.64636 43.2998 4.46819 43.2998 5.55825ZM42.0727 4.41098V18.9984H38.7419V4.41098H42.0727ZM31.9294 19.209C29.8857 19.2088 28.1824 18.5397 26.8011 17.2015C25.4197 15.8447 24.7388 14.1054 24.7388 11.9824C24.7388 9.8422 25.438 8.08301 26.8195 6.70613C28.2207 5.31076 29.9243 4.62305 31.9498 4.62305C34.4486 4.62305 36.6621 5.71168 37.9503 7.41385L35.6959 9.80369C34.6167 8.63658 33.4429 8.04444 32.1758 8.04444C31.0966 8.04444 30.2067 8.40685 29.468 9.15309C28.749 9.89927 28.3902 10.8367 28.3902 11.9638C28.3902 13.0539 28.749 13.9713 29.468 14.7175C30.2067 15.4437 31.0966 15.8062 32.156 15.8062C33.5375 15.8062 34.7495 15.1941 35.7525 13.9898L38.1001 16.2655C37.456 17.1259 36.5858 17.8336 35.5066 18.3872C34.4277 18.9421 33.2357 19.2089 31.9294 19.209ZM46.9143 8.44431V18.9982H43.5638V8.44431H46.9143ZM49.3162 17.6786C50.3558 18.7115 51.6808 19.228 53.3278 19.228C55.5427 19.228 57.4158 18.1379 58.3254 16.3787L55.6557 14.7736C55.2772 15.5955 54.3873 16.1305 53.4225 16.1305C52.0777 16.1305 51.0748 15.0975 51.0748 13.7021C51.0631 13.0688 51.3014 12.4568 51.7373 12.0014C52.1922 11.5419 52.76 11.3123 53.4606 11.3123C54.4254 11.3123 55.1642 11.7717 55.6939 12.6705L58.3621 11.2551C57.4736 9.24768 55.5611 8.1776 53.3844 8.1776C51.7189 8.1776 50.3756 8.69271 49.3346 9.72568C48.2936 10.7586 47.7822 12.077 47.7822 13.7021C47.7822 15.3272 48.2936 16.647 49.3162 17.6786ZM69.9427 18.9984H65.9668L62.8801 14.8108L62.3888 15.2702V18.9984H59.0594V4.41098H62.3899V11.5035L65.5315 8.44449H69.6014L65.1166 12.6892L69.9427 18.9984ZM70.1662 4.86922V13.5112C70.1662 17.6788 73.0435 19.2469 75.9394 19.2469C78.8534 19.2469 81.7125 17.6788 81.7125 13.5112V4.86922H78.1345V13.4541C78.1345 15.0022 77.226 15.8055 75.9394 15.8055C74.6329 15.8055 73.7244 15.0407 73.7244 13.4541V4.86922H70.1662ZM89.6201 8.1776C91.1162 8.1776 92.3282 8.71266 93.2927 9.78275C94.2572 10.8343 94.7304 12.154 94.7304 13.7021C94.7304 15.2516 94.2391 16.57 93.2746 17.66C92.3083 18.7301 91.0975 19.2665 89.64 19.2665C88.4846 19.2665 87.4816 18.8842 86.6676 18.1194V23.3386H83.3172V8.44443H86.6116V9.42033C87.425 8.59707 88.428 8.1776 89.6201 8.1776ZM88.9771 11.3127C90.3407 11.3127 91.3234 12.3642 91.3234 13.741H91.3251C91.3333 14.3799 91.0952 14.997 90.6611 15.4617C90.2258 15.9397 89.658 16.1694 88.9771 16.1694C88.295 16.1694 87.7273 15.9397 87.2739 15.4617C86.8374 14.9838 86.6116 14.4102 86.6116 13.741C86.6116 12.3642 87.614 11.3127 88.9771 11.3127Z" fill="white"/>
</g>
<defs>
<linearGradient id="paint0_linear_2002_3024" x1="0.806152" y1="23.8122" x2="19.0322" y2="23.8122" gradientUnits="userSpaceOnUse">
<stop stop-color="#7612FA"/>
<stop offset="1" stop-color="#40DDFF"/>
</linearGradient>
<linearGradient id="paint1_linear_2002_3024" x1="1.20361" y1="13.1601" x2="18.6669" y2="13.1601" gradientUnits="userSpaceOnUse">
<stop stop-color="#FA12E3"/>
<stop offset="1" stop-color="#FFD700"/>
</linearGradient>
<clipPath id="clip0_2002_3024">
<rect width="93.9435" height="23.34" fill="white" transform="translate(0.806152 0.329956)"/>
</clipPath>
</defs>
</svg>
